<svg xmlns="http://www.w3.org/2000/svg" width="199.798" height="184.676" viewBox="0 0 199.798 184.676">
  <g id="Group_14797" data-name="Group 14797" transform="translate(-3137.682 764.358)">
    <g id="comment" transform="translate(3137.682 -754.318)">
      <g id="Group_14796" data-name="Group 14796">
        <path id="Path_34058" data-name="Path 34058" d="M169.519,0H5.116A5.116,5.116,0,0,0,0,5.116V136.639a5.116,5.116,0,0,0,5.116,5.116H32.881v27.764a5.116,5.116,0,0,0,8.734,3.618L73,141.755h96.522a5.116,5.116,0,0,0,5.116-5.116V5.116A5.116,5.116,0,0,0,169.519,0ZM58.054,74.5a5.114,5.114,0,1,1,1.5-3.619A5.151,5.151,0,0,1,58.054,74.5Zm32.88,0a5.109,5.109,0,1,1,1.5-3.619A5.151,5.151,0,0,1,90.934,74.5Zm32.881,0a5.114,5.114,0,1,1,1.5-3.619A5.151,5.151,0,0,1,123.815,74.5Z" fill="#0dbbe7"/>
      </g>
    </g>
    <path id="Path_34059" data-name="Path 34059" d="M3238.154-479.042,3248.523-465l49.775-32.211" transform="translate(37.009 -263.788)" fill="none" stroke="#0de7a6" stroke-width="8"/>
  </g>
</svg>
