<svg id="_x31__x2C_5" enable-background="new 0 0 24 24" height="512" viewBox="0 0 24 24" width="512" xmlns="http://www.w3.org/2000/svg"><path d="m13.861 3.609h-6.144-4.578c-1.417 0-2.564 1.147-2.564 2.564v9.081 2.573c0 1.417 1.147 2.564 2.564 2.564h6.144 4.578c1.417 0 2.564-1.147 2.564-2.564v-9.081-2.573c0-1.417-1.147-2.564-2.564-2.564z" fill="#2196f3"/><path d="m11.875 2.125h-.99c-.297-1.035-1.251-1.8-2.385-1.8s-2.088.765-2.385 1.8h-.99c-.369 0-.675.306-.675.675v1.8c0 .864.711 1.575 1.575 1.575h4.95c.864 0 1.575-.711 1.575-1.575v-1.8c0-.369-.306-.675-.675-.675z" fill="#1976d2"/><path d="m20.848 23.414h-.684c-2.431 0-3.856-.606-4.489-.968-.139-.08-.226-.228-.227-.388l-.027-5.085c-.001-.156.08-.301.212-.384.367-.229 1.561-1.049 1.561-2.021 0-.555 0-1.71 1.08-1.71.724 0 1.503.664 1.503 2.124 0 .498-.086.915-.186 1.233h1.788c1.196 0 2.169.973 2.169 2.169 0 .029-.112 2.286-.549 3.207l.04.007c-.169 1.034-1.111 1.816-2.191 1.816z" fill="#eceff1"/><path d="m14.405 23.24h-.81c-.67 0-1.215-.545-1.215-1.215v-4.05c0-.67.545-1.215 1.215-1.215h.81c.67 0 1.215.545 1.215 1.215v4.05c0 .67-.545 1.215-1.215 1.215z" fill="#607d8b"/><path d="m14.25 24h-.5c-.965 0-1.75-.785-1.75-1.75v-4.5c0-.965.785-1.75 1.75-1.75h.5c.965 0 1.75.785 1.75 1.75v4.5c0 .965-.785 1.75-1.75 1.75zm-.5-6.5c-.138 0-.25.112-.25.25v4.5c0 .138.112.25.25.25h.5c.136 0 .25-.114.25-.25v-4.5c0-.138-.112-.25-.25-.25z"/><path d="m20.75 24h-.51c-2.758 0-4.387-.694-5.112-1.108-.359-.205-.484-.663-.279-1.023.205-.359.663-.486 1.023-.279.479.274 1.866.911 4.368.911h.51c.584 0 1.111-.427 1.2-.971.005-.028.011-.057.019-.083.072-.311.509-2.518.532-2.813-.001-.613-.522-1.134-1.161-1.134h-2.5c-.277 0-.531-.152-.662-.397-.13-.244-.115-.54.039-.771s.343-.551.343-1.452c0-.897-.353-1.317-.48-1.368.043.028-.139.259-.139.908 0 1.676-1.625 2.87-2.324 3.307-.352.218-.813.111-1.033-.24-.219-.351-.111-.813.24-1.033.781-.487 1.617-1.277 1.617-2.033 0-1.658.854-2.4 1.699-2.4.943 0 1.92 1.07 1.92 2.86 0 .427-.053.803-.128 1.12h1.408c1.467 0 2.66 1.193 2.66 2.66 0 .093 0 .247-.29 1.739-.124.637-.208 1.072-.292 1.37l.013.002c-.208 1.27-1.361 2.228-2.681 2.228z"/><path d="m9.75 21h-7c-1.517 0-2.75-1.233-2.75-2.75v-12.5c0-1.517 1.233-2.75 2.75-2.75h1.88c.414 0 .75.336.75.75s-.336.75-.75.75h-1.88c-.689 0-1.25.561-1.25 1.25v12.5c0 .689.561 1.25 1.25 1.25h7c.414 0 .75.336.75.75s-.336.75-.75.75z"/><path d="m16.25 11.06c-.414 0-.75-.336-.75-.75v-4.56c0-.689-.561-1.25-1.25-1.25h-1.87c-.414 0-.75-.336-.75-.75s.336-.75.75-.75h1.87c1.517 0 2.75 1.233 2.75 2.75v4.56c0 .414-.336.75-.75.75z"/><path d="m11.25 6.5h-5.5c-.965 0-1.75-.785-1.75-1.75v-2c0-.414.336-.75.75-.75h1.104c.328-1.153 1.389-2 2.646-2s2.318.847 2.646 2h1.104c.414 0 .75.336.75.75v2c0 .965-.785 1.75-1.75 1.75zm-5.75-3v1.25c0 .138.112.25.25.25h5.5c.138 0 .25-.112.25-.25v-1.25h-1c-.414 0-.75-.336-.75-.75 0-.689-.561-1.25-1.25-1.25s-1.25.561-1.25 1.25c0 .414-.336.75-.75.75z"/><path d="m13.25 9.5h-9.5c-.414 0-.75-.336-.75-.75s.336-.75.75-.75h9.5c.414 0 .75.336.75.75s-.336.75-.75.75z"/><path d="m13.25 12.5h-9.5c-.414 0-.75-.336-.75-.75s.336-.75.75-.75h9.5c.414 0 .75.336.75.75s-.336.75-.75.75z"/><path d="m11.1 15.5h-7.35c-.414 0-.75-.336-.75-.75s.336-.75.75-.75h7.35c.414 0 .75.336.75.75s-.336.75-.75.75z"/></svg>