<svg xmlns="http://www.w3.org/2000/svg" width="174.635" height="174.635" viewBox="0 0 174.635 174.635">
  <path id="Path_34058" data-name="Path 34058" d="M169.519,0H5.116A5.116,5.116,0,0,0,0,5.116V136.639a5.116,5.116,0,0,0,5.116,5.116H32.881v27.764a5.116,5.116,0,0,0,8.734,3.618L73,141.755h96.522a5.116,5.116,0,0,0,5.116-5.116V5.116A5.116,5.116,0,0,0,169.519,0ZM58.054,74.5a5.114,5.114,0,1,1,1.5-3.619A5.151,5.151,0,0,1,58.054,74.5Zm32.88,0a5.109,5.109,0,1,1,1.5-3.619A5.151,5.151,0,0,1,90.934,74.5Zm32.881,0a5.114,5.114,0,1,1,1.5-3.619A5.151,5.151,0,0,1,123.815,74.5Z" fill="#bbb"/>
</svg>
