<svg id="connection-no" xmlns="http://www.w3.org/2000/svg" width="512" height="512" viewBox="0 0 512 512">
  <g id="Group_14798" data-name="Group 14798">
    <path id="Path_34060" data-name="Path 34060" d="M336.889,82.352a92.127,92.127,0,0,0-65.637,27.1L176.378,204.3l-.009.01-66.913,66.941a92.84,92.84,0,0,0,131.294,131.3l161.8-161.8a92.75,92.75,0,0,0-65.661-158.4ZM226.609,388.4A72.84,72.84,0,0,1,123.6,285.391l66.92-66.948A72.915,72.915,0,0,1,260.759,199.6c.281.09.565.165.852.229a72.441,72.441,0,0,1,48.933,45.546l-17.959,17.951a50.973,50.973,0,0,0-86.672-29.488l-22.669,22.678c-.078.074-.152.152-.228.228L139,300.782a51.069,51.069,0,0,0,72.219,72.226l40.069-40.1a93.491,93.491,0,0,0,29.589,1.21Zm55.3-202.273,33.022-33a31.265,31.265,0,0,1,43.932.007c11.9,11.9,11.9,32.022,0,43.938l-33.035,33.02a92.4,92.4,0,0,0-43.921-43.962Zm-9.042,86.75c-.962.087-1.934.135-2.914.135a30.79,30.79,0,0,1-30.846-33.825,30.716,30.716,0,0,1,33.76,33.69Zm-86.716,9.015a92.473,92.473,0,0,0,43.9,43.972l-32.975,33c-11.923,11.9-32.048,11.9-43.945.006a31.265,31.265,0,0,1,0-43.94Zm202.251-55.288-66.955,66.927h0a72.26,72.26,0,0,1-51.492,21.24,73.778,73.778,0,0,1-18.948-2.472l-.008,0a72.341,72.341,0,0,1-49.562-45.7l17.954-17.961a51.074,51.074,0,0,0,86.664,29.5l66.961-66.932a50.989,50.989,0,0,0-36.128-87.094,50.633,50.633,0,0,0-36.1,14.875l-40.1,40.07a93.626,93.626,0,0,0-29.545-1.235l54.247-54.23A72.84,72.84,0,0,1,388.406,226.6Z" fill="#a1a1a1"/>
    <path id="Path_34061" data-name="Path 34061" d="M486.276,367.917A256.225,256.225,0,0,0,467.13,111.176a10,10,0,1,0-16.488,11.318,236.176,236.176,0,0,1,19.313,233.145A83.7,83.7,0,0,0,355.64,469.954,233.249,233.249,0,0,1,255.985,492C125.862,492,20,386.124,20,255.985,20,125.862,125.862,20,255.985,20a234.619,234.619,0,0,1,134.3,41.9,10,10,0,0,0,11.394-16.436A256.014,256.014,0,0,0,74.973,437.011,254.293,254.293,0,0,0,255.985,512a256.93,256.93,0,0,0,111.931-25.724,83.71,83.71,0,1,0,118.36-118.359ZM428.216,492A63.77,63.77,0,1,1,492,428.216,63.842,63.842,0,0,1,428.216,492Z" fill="#a3a3a3"/>
    <path id="Path_34063" data-name="Path 34063" d="M422.873,89.127a9.846,9.846,0,1,0-.029-.028Z" fill="#919191"/>
    <path id="Path_34064" data-name="Path 34064" d="M397.1,395.725l60.62,61.387" transform="translate(3 3)" fill="none" stroke="#a3a3a3" stroke-linecap="round" stroke-width="20"/>
    <path id="Path_34065" data-name="Path 34065" d="M397.1,395.725l60.62,61.387" transform="translate(856.826 2.012) rotate(90)" fill="none" stroke="#a3a3a3" stroke-linecap="round" stroke-width="20"/>
  </g>
</svg>
