<svg id="_x31_" enable-background="new 0 0 24 24" height="512" viewBox="0 0 24 24" width="512" xmlns="http://www.w3.org/2000/svg"><path d="m14.038 24h-.538c-.827 0-1.5-.673-1.5-1.5v-5.652c0-.827.673-1.5 1.5-1.5h.538c.827 0 1.5.673 1.5 1.5v5.652c0 .827-.673 1.5-1.5 1.5zm-.538-7.652c-.275 0-.5.225-.5.5v5.652c0 .275.225.5.5.5h.538c.275 0 .5-.225.5-.5v-5.652c0-.275-.225-.5-.5-.5z"/><path d="m21.028 24h-.876c-3.717 0-5.354-1.248-5.423-1.302-.217-.17-.255-.484-.085-.702s.483-.257.702-.085c.011.009 1.472 1.089 4.806 1.089h.876c.693 0 1.28-.496 1.394-1.181l.559-3.348c.068-.411-.047-.828-.315-1.146-.27-.318-.662-.5-1.078-.5h-2.869c-.185 0-.354-.102-.44-.264-.087-.163-.078-.359.024-.514.002-.003.394-.623.394-1.636-.002-1.027-.428-1.411-.697-1.411-.08 0-.104.011-.105.011-.002.006-.112.149-.112.924 0 1.951-2.406 3.257-2.509 3.312-.245.13-.546.038-.676-.206-.13-.243-.038-.546.205-.676.55-.296 1.979-1.309 1.979-2.43 0-.676 0-1.935 1.218-1.935.816 0 1.695.755 1.695 2.413 0 .572-.1 1.051-.215 1.413h2.106c.711 0 1.382.311 1.841.854.459.542.656 1.255.539 1.956l-.559 3.348c-.193 1.168-1.194 2.016-2.379 2.016z"/><path d="m9.5 21h-7c-1.379 0-2.5-1.121-2.5-2.5v-13c0-1.379 1.121-2.5 2.5-2.5h2c.276 0 .5.224.5.5s-.224.5-.5.5h-2c-.827 0-1.5.673-1.5 1.5v13c0 .827.673 1.5 1.5 1.5h7c.276 0 .5.224.5.5s-.224.5-.5.5z"/><path d="m11.5 6h-6c-.827 0-1.5-.673-1.5-1.5v-2c0-.276.224-.5.5-.5h1.55c.232-1.14 1.243-2 2.45-2s2.218.86 2.45 2h1.55c.276 0 .5.224.5.5v2c0 .827-.673 1.5-1.5 1.5zm-6.5-3v1.5c0 .275.225.5.5.5h6c.275 0 .5-.225.5-.5v-1.5h-1.5c-.276 0-.5-.224-.5-.5 0-.827-.673-1.5-1.5-1.5s-1.5.673-1.5 1.5c0 .276-.224.5-.5.5z"/><path d="m13.5 9h-10c-.276 0-.5-.224-.5-.5s.224-.5.5-.5h10c.276 0 .5.224.5.5s-.224.5-.5.5z"/><path d="m13.5 12h-10c-.276 0-.5-.224-.5-.5s.224-.5.5-.5h10c.276 0 .5.224.5.5s-.224.5-.5.5z"/><path d="m9.5 15h-6c-.276 0-.5-.224-.5-.5s.224-.5.5-.5h6c.276 0 .5.224.5.5s-.224.5-.5.5z"/><path d="m16.5 10c-.276 0-.5-.224-.5-.5v-4c0-.827-.673-1.5-1.5-1.5h-2c-.276 0-.5-.224-.5-.5s.224-.5.5-.5h2c1.379 0 2.5 1.121 2.5 2.5v4c0 .276-.224.5-.5.5z"/></svg>